PathFileType	4	(X/Y/Z)	c:/Users/goper/Files/vsCode/490R/osim_files/C03/C03_Static.trc
DataRate	CameraRate	NumFrames	NumMarkers	Units                	OrigDataRate	OrigDataStartFrame	OrigNumFrames
250.00	250.00	10	36	mm	250.0	1	1538
                Frame#	Time	LPSIS			LASIS			LTH1			LTH2			LTH3			LTH4			LLFE			LMFE			LSH1			LSH2			LSH3			LSH4			LLMAL			LMMAL			LCAL			LMTP5			LTOE			LMTP1			RPSIS			RASIS			RTH1			RTH2			RTH3			RTH4			RLFE			RMFE			RSH1			RSH2			RSH3			RSH4			RLMAL			RMMAL			RCAL			RMTP1			RTOE			RMTP5		
		X1	Y1	Z1	X2	Y2	Z2	X3	Y3	Z3	X4	Y4	Z4	X5	Y5	Z5	X6	Y6	Z6	X7	Y7	Z7	X8	Y8	Z8	X9	Y9	Z9	X10	Y10	Z10	X11	Y11	Z11	X12	Y12	Z12	X13	Y13	Z13	X14	Y14	Z14	X15	Y15	Z15	X16	Y16	Z16	X17	Y17	Z17	X18	Y18	Z18	X19	Y19	Z19	X20	Y20	Z20	X21	Y21	Z21	X22	Y22	Z22	X23	Y23	Z23	X24	Y24	Z24	X25	Y25	Z25	X26	Y26	Z26	X27	Y27	Z27	X28	Y28	Z28	X29	Y29	Z29	X30	Y30	Z30	X31	Y31	Z31	X32	Y32	Z32	X33	Y33	Z33	X34	Y34	Z34	X35	Y35	Z35	X36	Y36	Z36

1	0.00000	-390.08429	1036.84082	363.24548	-204.41420	972.21301	342.07462	-348.45944	643.75983	280.01596	-348.31949	581.70227	283.65607	-272.71777	638.57623	284.56522	-282.09665	577.86938	288.25894	-330.99734	489.00684	291.01974	-339.14157	478.99673	403.29578	-402.39551	310.92566	277.71603	-397.42056	264.74368	280.13971	-341.77850	314.74728	271.90259	-345.31747	266.91223	274.37735	-353.03711	99.64510	295.02710	-334.10306	109.15887	374.01138	-419.38602	63.85040	330.12039	-219.14360	50.59860	269.52475	-187.57632	66.79713	323.11984	-209.39572	54.67875	363.42233	-400.13269	1030.82483	472.34647	-231.31595	990.19464	551.07190	-377.31326	619.68152	573.92700	-381.03751	558.19891	566.23737	-318.16681	618.34650	599.98505	-311.37585	556.92529	597.58759	-318.28027	487.57852	584.30841	-322.92093	494.66251	470.14102	-417.69308	308.95627	598.84760	-415.60672	261.84320	601.08478	-358.29831	303.40427	616.37762	-365.55182	260.76288	616.70416	-375.92484	101.54606	603.03412	-354.79114	101.30804	524.01221	-442.07550	63.64835	557.24982	-234.09322	41.79934	542.20319	-210.89995	67.78675	588.99237	-270.87430	38.69476	646.45251
2	0.00400	-390.11951	1036.83984	363.32751	-204.81856	972.09235	342.20139	-348.45584	643.77856	280.00928	-348.36163	581.72540	283.67645	-272.74927	638.59576	284.52795	-282.12143	577.85541	288.25159	-331.01230	489.01398	291.01721	-339.15451	479.01810	403.29141	-402.42688	310.93420	277.73831	-397.44922	264.76233	280.14346	-341.79773	314.76050	271.90814	-345.31302	266.93881	274.37628	-353.05429	99.62838	295.01431	-334.10889	109.16204	373.98895	-419.38654	63.84789	330.10446	-219.14774	50.61102	269.52878	-187.58209	66.79902	323.12183	-209.40236	54.67836	363.42371	-400.05212	1030.80383	472.39355	-231.20654	990.18585	551.03894	-377.07541	619.66034	574.17047	-380.91791	558.20959	566.22131	-318.02618	618.35052	599.97925	-311.27283	556.93591	597.60626	-318.20062	487.57394	584.30164	-322.83917	494.65842	470.12701	-417.63806	308.97699	598.86578	-415.59000	261.86206	601.07776	-358.24200	303.39267	616.37067	-365.51932	260.77371	616.69904	-375.92300	101.55694	603.04871	-354.78397	101.30862	524.01245	-442.07193	63.65130	557.24963	-234.10376	41.79168	542.21326	-210.89445	67.79042	588.98700	-270.87198	38.70474	646.44232
3	0.00800	-390.14383	1036.84778	363.39288	-204.43031	972.26666	341.94727	-348.48343	643.76752	280.01898	-349.12091	581.53046	284.06659	-272.80719	638.62390	284.51144	-282.14969	577.88440	288.23782	-331.03586	489.03207	291.01489	-339.15335	479.02640	403.27930	-402.48181	310.95505	277.74377	-397.46042	264.77167	280.14264	-341.86298	314.77957	271.90067	-345.36996	266.94852	274.37405	-353.06033	99.62936	294.99124	-334.14511	109.17592	373.97900	-419.43417	63.86562	330.10223	-219.16867	50.61865	269.51141	-187.63676	66.79737	323.11771	-209.44777	54.68835	363.40381	-400.05426	1030.82166	472.46680	-231.16150	990.18250	551.00037	-377.22467	619.69080	573.97583	-380.95721	558.26642	566.25671	-318.02884	618.34656	599.99457	-311.23480	556.94244	597.59296	-318.17133	487.56805	584.28693	-322.80527	494.64587	470.14813	-417.63770	309.01370	598.84747	-415.61310	261.89569	601.06561	-358.26160	303.38974	616.36951	-365.53616	260.75824	616.69128	-375.98407	101.56802	603.02814	-354.79129	101.31875	523.99817	-442.09970	63.66208	557.24945	-234.11856	41.79604	542.21222	-210.93365	67.80108	588.97253	-270.92468	38.70330	646.44000
4	0.01200	-390.19769	1036.83826	363.46149	-204.44696	972.27216	341.88391	-348.51483	643.76526	280.02036	-348.44727	581.74304	283.68881	-272.86417	638.60193	284.48999	-282.18744	577.88586	288.22076	-331.08197	489.02698	291.00824	-339.17087	479.03674	403.28357	-402.48077	310.96011	277.73456	-397.51489	264.76236	280.16302	-341.91867	314.77106	271.90179	-345.41061	266.94678	274.37665	-353.08368	99.62289	294.99350	-334.18329	109.17848	373.95932	-419.50745	63.90596	330.09698	-219.20422	50.62400	269.51416	-187.66135	66.79599	323.11874	-209.47661	54.69937	363.40149	-400.03424	1030.83008	472.52148	-231.09100	990.18524	550.96307	-377.16400	619.72681	573.98584	-380.91721	558.28900	566.21381	-317.98526	618.34955	599.98859	-311.18945	556.95160	597.57922	-318.13516	487.55508	584.28912	-322.74408	494.62793	470.15100	-417.64969	309.04089	598.83398	-415.65985	261.92618	601.03680	-358.25528	303.39111	616.35870	-365.51758	260.76617	616.68378	-376.05679	101.57795	603.01843	-354.81625	101.31155	524.00696	-442.13986	63.66460	557.22418	-234.13213	41.78785	542.20081	-210.94041	67.79765	588.97028	-270.95712	38.70326	646.43744
5	0.01600	-390.21210	1036.83252	363.53479	-204.89009	972.12756	342.01416	-348.71472	643.64191	280.06488	-348.47815	581.75098	283.68268	-272.88776	638.61926	284.45944	-282.22739	577.88849	288.18246	-331.09467	489.03012	291.00684	-339.17703	479.02921	403.29068	-402.52042	310.95435	277.74261	-397.51633	264.77530	280.15396	-341.96555	314.76160	271.90695	-345.46420	266.91705	274.38614	-353.09201	99.61254	294.97067	-334.18237	109.18981	373.93646	-419.52380	63.91575	330.08774	-219.22823	50.61237	269.51001	-187.68166	66.80294	323.11642	-209.47362	54.72589	363.38828	-399.98251	1030.83130	472.57709	-230.97067	990.20648	550.92114	-377.14078	619.73743	573.93964	-380.82550	558.31543	566.25006	-317.86044	618.36078	599.98413	-311.11539	556.93915	597.57574	-318.05292	487.56253	584.28412	-322.70428	494.60370	470.14276	-417.61475	309.05698	598.81757	-415.61517	261.93686	601.03448	-358.19440	303.40448	616.34961	-365.47650	260.76923	616.67145	-376.08557	101.58053	603.00610	-354.81418	101.29569	524.00897	-442.15039	63.66090	557.20276	-234.13129	41.78993	542.19873	-210.95381	67.79440	588.95520	-270.94464	38.70822	646.41193
6	0.02000	-390.23904	1036.83313	363.57913	-204.89282	972.14514	341.94901	-348.57462	643.77271	280.01691	-348.51752	581.75482	283.68692	-272.90305	638.61230	284.43890	-282.28659	577.87476	288.15445	-331.14209	489.01575	291.01004	-339.16055	479.03699	403.28314	-402.57159	310.96146	277.75531	-397.58292	264.78156	280.17905	-341.98141	314.77158	271.91830	-345.49252	266.94455	274.37729	-353.11020	99.59534	294.96051	-334.14017	109.20779	373.90393	-419.48550	63.89845	330.05991	-219.20337	50.60410	269.50128	-187.65674	66.81116	323.11032	-209.44995	54.73497	363.37469	-399.81427	1030.78699	472.65829	-230.83075	990.22461	550.87250	-376.99194	619.72290	573.97168	-380.64954	558.29608	566.24866	-317.73596	618.35736	599.97711	-310.94876	556.93774	597.57428	-317.88416	487.56030	584.25177	-322.64328	494.58270	470.14120	-417.52081	309.06860	598.80725	-415.54788	261.93353	601.03400	-358.12820	303.39905	616.32678	-365.40674	260.77643	616.64435	-376.03659	101.57710	602.99280	-354.89868	101.24828	523.96710	-442.11218	63.65054	557.18988	-234.15582	41.77847	542.19873	-210.95708	67.79348	588.94403	-270.90192	38.71762	646.39197
7	0.02400	-390.20676	1036.82397	363.65384	-204.91933	972.14990	341.87851	-348.63593	643.77570	280.04364	-348.53369	581.75757	283.67972	-272.95840	638.63782	284.42819	-282.31662	577.89795	288.13290	-331.16864	489.03238	291.00140	-339.11981	479.05273	403.28937	-402.59586	310.99048	277.76926	-397.62726	264.76614	280.19595	-342.03250	314.76572	271.90524	-345.52774	266.96350	274.37201	-353.12082	99.61238	294.95578	-334.11536	109.21134	373.90082	-419.43188	63.86480	330.04092	-219.19215	50.60953	269.48682	-187.63539	66.81181	323.08609	-209.43805	54.72436	363.35907	-399.67923	1030.75061	472.74875	-230.66087	990.21252	550.82928	-376.66556	619.69299	574.21466	-380.64368	557.97974	565.25824	-317.56509	618.35181	599.97534	-310.59305	557.00995	597.66443	-317.75217	487.54401	584.24304	-322.56528	494.58084	470.14304	-417.41464	309.06247	598.81812	-415.45532	261.93857	601.04431	-358.02850	303.39636	616.31793	-365.35144	260.78113	616.64471	-375.99731	101.58340	602.99396	-354.90057	101.23092	523.97040	-442.10306	63.63100	557.17523	-234.14975	41.77549	542.18451	-210.94270	67.79710	588.94275	-270.89706	38.71029	646.38306
8	0.02800	-390.20316	1036.82715	363.71725	-204.52116	972.31433	341.67285	-348.63986	643.78284	280.08139	-348.54471	581.76056	283.73343	-272.96600	638.64868	284.40875	-282.35425	577.89282	288.11893	-331.17838	489.03680	291.01581	-339.07593	479.05261	403.30447	-402.63177	310.98087	277.81714	-397.64307	264.79819	280.21774	-342.05869	314.77838	271.91187	-345.57047	266.95294	274.37576	-353.13980	99.61257	294.96268	-334.12128	109.19211	373.88885	-419.47562	63.87878	330.08511	-219.20934	50.58503	269.49295	-187.65253	66.80970	323.11368	-209.44334	54.73154	363.38126	-399.30646	1030.53540	472.92114	-230.55635	990.17841	550.81519	-376.74658	619.69867	574.02405	-380.41254	558.28693	566.29279	-317.50534	618.31506	600.00745	-310.67801	556.90680	597.57825	-317.66202	487.53528	584.25189	-322.51096	494.58005	470.15445	-417.36414	309.06168	598.83441	-415.42276	261.92209	601.06061	-358.01227	303.37704	616.35150	-365.31378	260.78342	616.67487	-376.00580	101.57671	603.00549	-354.82599	101.28347	523.99817	-442.11139	63.63110	557.19965	-234.15656	41.76460	542.21136	-210.94975	67.78599	588.94641	-270.88678	38.70824	646.39764
9	0.03200	-390.22549	1036.82471	363.79184	-204.57364	972.30829	341.62451	-348.71863	643.79956	280.11575	-348.62570	581.77240	283.76483	-273.00143	638.67273	284.40576	-282.34509	577.93793	288.10916	-331.21893	489.03329	291.04593	-339.08966	479.03528	403.32178	-402.69177	310.98669	277.85953	-397.67465	264.79977	280.24329	-342.08163	314.78882	271.91574	-345.57413	266.96472	274.38281	-353.14780	99.60895	294.96686	-334.16623	109.18277	373.90958	-419.48636	63.86551	330.08444	-219.23132	50.59591	269.51926	-187.67955	66.79021	323.12091	-209.49374	54.71015	363.39981	-399.57465	1030.72778	472.98389	-230.49770	990.15161	550.79968	-376.69305	619.71332	574.07166	-380.52103	557.94336	565.29022	-317.39896	618.29309	600.04279	-310.61118	556.88867	597.60004	-317.63034	487.50305	584.27338	-322.41025	494.59521	470.17389	-417.33627	309.06030	598.85480	-415.39566	261.91443	601.09229	-358.00729	303.36218	616.36334	-365.31006	260.76239	616.69397	-376.03616	101.57301	603.01862	-354.83618	101.27797	523.99878	-442.13889	63.63799	557.22174	-234.13861	41.76939	542.20581	-210.94092	67.79367	588.95251	-270.93076	38.69783	646.41437
10	0.03600	-390.23608	1036.81689	363.87521	-204.55553	972.32300	341.56448	-348.93118	643.65796	280.21426	-349.35751	581.57495	284.16959	-273.04935	638.68835	284.36050	-282.39044	577.96375	288.10989	-331.23706	489.05920	291.05807	-339.09033	479.03198	403.34137	-402.72580	310.99423	277.89542	-397.69989	264.81342	280.27527	-342.14432	314.83072	271.91037	-345.59589	266.99057	274.38104	-353.15079	99.60909	294.95944	-334.20572	109.19761	373.90884	-419.56830	63.89451	330.11066	-219.25320	50.60652	269.52271	-187.72157	66.80345	323.11838	-209.50107	54.71852	363.41162	-399.50485	1030.72168	473.09912	-230.41855	990.14771	550.77911	-376.63095	619.73352	574.11859	-380.50247	557.97211	565.31293	-317.34534	618.29272	600.03210	-310.55801	556.87512	597.59961	-317.58429	487.48349	584.28094	-322.31381	494.59015	470.20306	-417.31528	309.09064	598.86719	-415.38043	261.94165	601.09106	-357.98413	303.36142	616.37354	-365.30579	260.76349	616.70410	-376.07901	101.59046	603.01825	-354.81668	101.29511	524.00348	-442.17413	63.65241	557.23926	-234.12073	41.77779	542.20892	-210.92683	67.80582	588.96893	-270.98486	38.68661	646.43140
